# xmcd
#
# Track frame offsets: 
#        151
#        26735
#        42501
#        52766
#        66002
#        84125
#        102562
#        115065
#        137670
#        149713
#
# Disc length: 2257 seconds
#
# Revision: 0
# Processed by: cddbd v1.5PL3 Copyright (c) Steve Scherf et al.
# Submitted via: ExactAudioCopy v0.95a4
#
DISCID=8808cf0a
DTITLE=John Trudell and Jesse Ed Davis - aka Grafitti Man - JT-JED
DYEAR=1986
DGENRE=Native American
TTITLE0=Rich Man's War
TTITLE1=Lavenders Blues
TTITLE2=New Old Man
TTITLE3=God Help and Breed You All
TTITLE4=Star Dreamer Woman
TTITLE5=Grafitti Man
TTITLE6=He Said She Said
TTITLE7=Baby Boom Che'
TTITLE8=Silent Lightning
TTITLE9=Shaman (Make A Chant)
EXTD=
EXTT0=
EXTT1=
EXTT2=
EXTT3=
EXTT4=
EXTT5=
EXTT6=
EXTT7=
EXTT8=
EXTT9=
PLAYORDER=
